<?xml version="1.0" encoding="utf-8"?>
<!-- Generator: Adobe Illustrator 22.1.0, SVG Export Plug-In . SVG Version: 6.00 Build 0)  -->
<svg version="1.1" id="Layer_1" xmlns="http://www.w3.org/2000/svg" xmlns:xlink="http://www.w3.org/1999/xlink" x="0px" y="0px"
	 viewBox="0 0 792 612" style="enable-background:new 0 0 792 612;" xml:space="preserve">
<style type="text/css">
	.st0{fill:#040303;}
	.st1{fill:#FEFDFD;}
	.st2{fill:#DB143C;}
</style>
<g>
	<path class="st0" d="M313.4,153.6c2.2-0.1,4.1-1.2,6.2-1.6c21.8-4.7,42.4,10.5,43.3,32.1c0.7,16.2-12.1,29.6-27.8,29.2
		c-11.5-0.3-21-9.2-21.7-20.1c-0.6-9.4,6.4-17.2,15.2-16.9c5.9,0.2,10.2,4.8,9.6,10.3c-0.4,3.3-2.2,4.9-5.9,4.7
		c0.3-1.4,0.4-2.8,0.9-4.1c1.1-2.9,0.2-5.1-2.9-6.1c-3.8-1.2-8.7,1.1-10.9,5c-3.2,5.8-1.2,14,4.7,18.7c9.3,7.4,23.7,4.5,30.4-6.3
		c5.7-9.2,5.2-18.7-0.2-27.7c-6.4-10.8-16.4-15.8-28.8-15c-13.2,0.9-23.3,7.5-29.1,19.4c-6.7,13.6-4.7,26.9,3.2,39.5
		c2.3,3.7,5.4,6.9,8.8,9.7c1.2,1,2.1,1.1,3.5,0.3c19.5-10.9,42.4-9.1,59.4,4.5c-6.5,3.4-12.9,6.9-19,11
		c-20.4,13.9-35.9,32-46.5,54.3c-1.9,4-3.5,8.2-5.2,12.3c-16.3-16.6-19.6-42.5-7.8-62.9c0.9-1.6,0.8-2.5-0.3-3.9
		c-9.7-12.3-25.3-17.8-40.4-13.6c-16.2,4.5-28,22-23.3,39.4c3.7,13.8,18,22.9,31.4,19.7c11.5-2.7,18.8-14.1,16-24.9
		c-2.2-8.4-11.4-13.5-18.6-10.4c-3.1,1.3-5.1,3.8-5.6,7.2c-0.5,3.5,1.4,5.4,4.9,5.1c0.4,0,0.9,0,1.4,0.1c0.9,0.2,2.2-0.3,2.5,0.5
		c0.4,1.1-0.4,2.2-1.3,3c-1.4,1.4-3.1,1.4-4.9,1.1c-5.3-1-8.2-6.1-6.8-11.6c2-7.8,10.7-12.5,18.8-10.1c12.1,3.6,18.1,17,13,28.9
		c-7,16.3-27.3,21.4-42.3,10.7c-15.8-11.4-18.6-33.4-6.2-49.3c14.3-18.3,40.6-20.4,58.9-4.6c2,1.7,3.9,3.6,5.5,5.7
		c0.7,0.9,1.2,1.4,2.1,0.1c2.5-3.3,5.5-6,8.7-8.6c-9.9-8.3-16.3-18.5-17.7-31.3c-1.9-16.3,3.7-29.6,17.2-39.2
		c0.3-0.2,0.5-0.3,0.4-0.7C308.5,156.1,310.9,154.9,313.4,153.6z"/>
	<path class="st0" d="M525.6,380.5c-6.3,33.3-35.4,58.1-68.5,62c-2.1-5.7-4.2-11.5-6.3-17.2c0.3-0.5,0-0.9-0.1-1.3
		c-4.9-13.2-9.9-26.3-14.9-39.5c-1-4.4-2.9-8.4-4.3-12.6c-3.5-9.8-7.1-19.6-10.7-29.7c2.1,0.2,3.8,1.1,5.6,1.7c30,11,60,22,90,33
		C519.5,378.1,522.5,379.3,525.6,380.5z"/>
	<path class="st1" d="M430.5,308.1c-12.2,6.2-27.2,1.3-33.4-10.9c-6.2-12.2-1.3-27.2,10.9-33.4c12.5-6.3,27.2-1.5,33.5,10.9
		C447.7,287.1,442.8,301.9,430.5,308.1z"/>
	<path class="st1" d="M435.8,384.5c5,13.2,9.9,26.3,14.9,39.5c0.2,0.4,0.4,0.8,0.1,1.3c-9.8,3.1-19.5,0.2-25-7.4
		c-5.6-7.7-5.9-17.8-0.6-25.5C427.8,388.6,431,385.4,435.8,384.5z"/>
	<path class="st1" d="M304.3,316.2c6.7-3.4,14.8-0.6,18.2,6.1c3.3,6.7,0.6,14.8-6.1,18.2c-6.7,3.4-14.8,0.7-18.2-6
		C294.7,327.7,297.4,319.6,304.3,316.2z"/>
	<path class="st1" d="M366.6,273.1c3.3,6.7,0.6,14.9-6.1,18.2c-6.7,3.3-14.8,0.6-18.2-6.1c-3.4-6.8-0.6-15,6.2-18.3
		C355.2,263.6,363.2,266.3,366.6,273.1z"/>
	<path class="st1" d="M497.1,341.8c-6.8,3.4-14.8,0.8-18.2-5.9c-3.4-6.7-0.7-14.8,6-18.3c6.7-3.5,14.9-0.8,18.3,6.1
		C506.6,330.5,503.9,338.3,497.1,341.8z"/>
	<path class="st1" d="M373.7,351.8c2.3,4.5,0.7,9.9-3.6,12.1c-4.2,2.2-9.7,0.4-12-4.1c-2.3-4.4-0.6-9.9,3.7-12.1
		C366.1,345.5,371.3,347.3,373.7,351.8z"/>
	<path class="st1" d="M447.3,234.1c2.3,4.6,0.6,9.7-3.9,11.9c-4.4,2.2-9.7,0.2-11.9-4.3c-2.2-4.5-0.4-9.9,4-12
		C439.8,227.6,445,229.5,447.3,234.1z"/>
	<path class="st1" d="M508.6,272.1c2.3,4.5,0.6,9.8-3.9,12c-4.4,2.2-9.7,0.3-11.9-4.2c-2.2-4.6-0.6-9.8,3.9-12
		C501.1,265.7,506.3,267.6,508.6,272.1z"/>
</g>
<path class="st2" d="M527.1,267.8c-30.5-41.1-71.6-56.1-121.5-49c-11.4,1.6-22.2,5.3-32.7,10c-0.5,0.2-1.1,0.4-1.7,0.6
	c-6.5,3.4-12.9,6.9-19,11c-20.4,13.9-35.9,32-46.5,54.3c-1.9,4-3.5,8.2-5.2,12.3c-2.6,8.3-4.9,16.7-6,25.4
	c-2.9,22.9,0.1,44.9,9.8,66c7.2,15.8,22.2,34,35.8,45.3c0,0,0,0,0.1,0.1c0.3,0.2,0.6,0.5,0.9,0.8c-0.1-0.1-0.2-0.3-0.3-0.4
	c2.1,1.2,8.4,4.4,8.3,4.5c1.2,0.7,2.4,1.5,3.7,2.2c28.7,15.7,59,19.3,90.8,12c5.9-1.4,11.7-3.3,17.4-5.3c1.1-0.4,1.4-0.8,0.9-1.9
	c-1.6-4.4-3.2-8.8-4.7-13.3c-2.1-5.7-4.2-11.5-6.3-17.2c-9.8,3.1-19.5,0.2-25-7.4c-5.6-7.7-5.9-17.8-0.6-25.5
	c2.6-3.8,5.8-7,10.6-7.9c-1-4.4-2.9-8.4-4.3-12.6c-3.5-9.8-7.1-19.6-10.7-29.7c2.1,0.2,3.8,1.1,5.6,1.7c30,11,60,22,90,33
	c3.1,1.1,6.2,2.4,9.3,3.6c3.2,1.1,6.5,2.1,9.6,3.4c1.6,0.7,2.2,0.3,2.8-1.2c5.9-14.5,9.2-29.6,9.6-45.3c0.4-16.4-2.5-32.2-8.6-47.4
	c-0.2-0.4-0.7-0.9-0.2-1.4c-2.4-4.7-4.8-9.5-7.2-14.2C529.7,272.4,528.7,269.9,527.1,267.8z M304.3,316.2c6.7-3.4,14.8-0.6,18.2,6.1
	c3.3,6.7,0.6,14.8-6.1,18.2c-6.7,3.4-14.8,0.7-18.2-6C294.7,327.7,297.4,319.6,304.3,316.2z M368,442.4
	c-12.2,6.2-25.9-0.9-31.9-10.3c-6.2-12.2-2.8-27.8,9.4-33.9c12.5-6.3,27.2-1.5,33.5,10.9C385.1,421.4,380.3,436.2,368,442.4z
	 M370.1,363.9c-4.2,2.2-9.7,0.4-12-4.1c-2.3-4.4-0.6-9.9,3.7-12.1c4.4-2.3,9.6-0.5,12,4C376,356.3,374.4,361.7,370.1,363.9z
	 M360.5,291.3c-6.7,3.3-14.8,0.6-18.2-6.1c-3.4-6.8-0.6-15,6.2-18.3c6.7-3.3,14.8-0.6,18.1,6.2C369.9,279.9,367.2,288,360.5,291.3z
	 M435.4,229.7c4.4-2.1,9.6-0.2,11.9,4.4c2.3,4.6,0.6,9.7-3.9,11.9c-4.4,2.2-9.7,0.2-11.9-4.3C429.3,237.2,431.1,231.9,435.4,229.7z
	 M430.5,308.1c-12.2,6.2-27.2,1.3-33.4-10.9c-6.2-12.2-1.3-27.2,10.9-33.4c12.5-6.3,27.2-1.5,33.5,10.9
	C447.7,287.1,442.8,301.9,430.5,308.1z M497.1,341.8c-6.8,3.4-14.8,0.8-18.2-5.9c-3.4-6.7-0.7-14.8,6-18.3
	c6.7-3.5,14.9-0.8,18.3,6.1C506.6,330.5,503.9,338.3,497.1,341.8z M504.7,284.1c-4.4,2.2-9.7,0.3-11.9-4.2c-2.2-4.6-0.6-9.8,3.9-12
	c4.4-2.2,9.6-0.4,11.9,4.2C510.8,276.7,509.1,281.9,504.7,284.1z"/>
<path class="st1" d="M368,442.4c-12.2,6.2-25.9-0.9-31.9-10.3c-6.2-12.2-2.8-27.8,9.4-33.9c12.5-6.3,27.2-1.5,33.5,10.9
	C385.1,421.4,380.3,436.2,368,442.4z"/>
</svg>
